<svg xmlns:xlink="http://www.w3.org/1999/xlink" xmlns="http://www.w3.org/2000/svg" fill="#002d9c" id="a" viewBox="0 0 965.75 965.75" width="965.75"  height="965.75" ><path d="M6.37,364.1l129.86,34.79,.63-2.53c.97-3.89,2.05-7.73,3.15-11.57l.72-2.5L10.83,347.48c-2.6-.7-5.32-.16-7.46,1.48-2.14,1.64-3.37,4.13-3.37,6.82,0,3.89,2.62,7.3,6.37,8.31Z"/><path d="M235.04,739.19c-2.87-2.78-5.7-5.61-8.48-8.48l-1.81-1.87L2.52,951.06c-1.62,1.62-2.52,3.79-2.52,6.09,0,4.74,3.86,8.6,8.6,8.6,2.3,0,4.46-.89,6.08-2.52l222.23-222.23-1.87-1.81Z"/><path d="M7.11,407.72l123.14,21.71,.41-2.58c.62-3.96,1.35-7.89,2.11-11.81l.49-2.56-123.16-21.72c-2.5-.44-5.07,.24-7.02,1.88-1.95,1.64-3.07,4.04-3.07,6.59,0,4.18,2.99,7.75,7.11,8.47Z"/><path d="M224.74,236.91l1.81-1.87c2.78-2.87,5.61-5.7,8.48-8.48l1.87-1.81L14.69,2.52c-1.62-1.62-3.79-2.52-6.08-2.52C3.86,0,0,3.86,0,8.6c0,2.27,.92,4.48,2.52,6.08L224.74,236.91Z"/><path d="M5.66,318.34l139.24,50.68,.85-2.46c1.31-3.79,2.66-7.55,4.09-11.27l.93-2.43L11.54,302.17c-2.63-.96-5.58-.57-7.87,1.04-2.3,1.61-3.67,4.24-3.67,7.05,0,3.6,2.27,6.85,5.66,8.08Z"/><path d="M204.25,260.31l1.64-2.02c2.52-3.11,5.13-6.14,7.75-9.16l1.71-1.97L14.13,78.32c-2.59-2.17-6.1-2.63-9.16-1.21-3.06,1.43-4.97,4.42-4.97,7.8,0,2.55,1.12,4.95,3.07,6.59l201.18,168.81Z"/><path d="M4.97,269.51l151.15,70.48,1.06-2.38c1.63-3.66,3.27-7.31,5.02-10.9l1.14-2.34L12.24,253.92c-2.68-1.25-5.76-1.04-8.25,.54-2.49,1.59-3.98,4.3-3.98,7.26,0,3.33,1.95,6.39,4.97,7.8Z"/><path d="M3.67,157.83l182.19,127.57,1.46-2.16c2.09-3.09,4.28-6.1,6.47-9.11l2.02-2.78L13.54,143.74c-2.64-1.85-6.05-2.07-8.91-.58-2.86,1.49-4.63,4.41-4.63,7.64,0,2.8,1.37,5.44,3.67,7.04Z"/><path d="M4.3,216.5l165.5,95.55,1.27-2.28c1.94-3.5,3.92-6.97,5.98-10.39l1.34-2.24L12.9,201.6c-2.69-1.55-5.91-1.56-8.6,0-2.69,1.56-4.3,4.34-4.3,7.45s1.65,5.92,4.3,7.45Z"/><path d="M7.85,449.95l119.18,10.43,.3-4.33c.24-3.42,.47-6.85,.82-10.24l.27-2.59-119.07-10.42c-2.39-.2-4.79,.6-6.56,2.23-1.77,1.62-2.79,3.94-2.79,6.35,0,4.49,3.37,8.18,7.85,8.57Z"/><path d="M4.3,764.15c1.35,.78,2.82,1.17,4.3,1.17s2.95-.39,4.3-1.17l165.49-95.54-1.34-2.24c-2.06-3.42-4.03-6.9-5.98-10.4l-1.27-2.27L4.3,749.25c-2.65,1.53-4.3,4.39-4.3,7.45s1.61,5.89,4.3,7.45Z"/><path d="M4.63,822.6c1.26,.65,2.62,.98,3.98,.98,1.73,0,3.45-.52,4.93-1.56l182.26-127.62-1.97-2.71c-2.2-3.03-4.41-6.06-6.52-9.17l-1.46-2.16L3.67,807.92c-2.3,1.61-3.67,4.24-3.67,7.05,0,3.22,1.77,6.14,4.63,7.63Z"/><path d="M3.98,711.29c1.41,.9,3.01,1.35,4.62,1.35,1.24,0,2.48-.27,3.64-.81l151.1-70.46-1.14-2.34c-1.75-3.59-3.39-7.24-5.02-10.89l-1.06-2.38L4.97,696.24c-3.02,1.41-4.97,4.47-4.97,7.8,0,2.95,1.49,5.67,3.98,7.25Z"/><path d="M4.97,888.64c1.18,.55,2.42,.82,3.66,.82,1.97,0,3.91-.69,5.51-2.03l201.22-168.85-1.71-1.97c-2.62-3.02-5.23-6.05-7.75-9.16l-1.64-2.02L3.07,874.25c-1.95,1.64-3.07,4.04-3.07,6.6,0,3.38,1.9,6.37,4.97,7.8Z"/><path d="M8.59,575.11c.5,0,1-.04,1.5-.13l123.16-21.72-.49-2.56c-.75-3.92-1.48-7.85-2.11-11.81l-.41-2.58-123.14,21.71c-4.12,.73-7.11,4.29-7.11,8.48,0,2.55,1.12,4.95,3.07,6.59,1.56,1.31,3.52,2.01,5.52,2.01Z"/><path d="M3.67,662.54c1.46,1.03,3.19,1.56,4.93,1.56,.99,0,1.99-.17,2.94-.52l139.23-50.68-.93-2.43c-1.43-3.73-2.79-7.49-4.09-11.27l-.85-2.46L5.66,647.41c-3.38,1.23-5.66,4.48-5.66,8.09,0,2.8,1.37,5.44,3.67,7.05Z"/><path d="M8.61,532.97c.25,0,.5-.01,.75-.03l119.07-10.42-.27-2.59c-.35-3.37-.58-6.77-.81-10.18l-.31-4.39-119.18,10.43c-4.48,.39-7.85,4.08-7.85,8.57,0,2.41,1.02,4.72,2.79,6.34,1.59,1.46,3.68,2.26,5.81,2.26Z"/><path d="M3.37,616.78c1.53,1.17,3.35,1.78,5.21,1.78,.75,0,1.5-.1,2.25-.3l129.9-34.8-.72-2.5c-1.1-3.84-2.18-7.68-3.15-11.57l-.63-2.53L6.38,601.65c-3.75,1-6.38,4.42-6.38,8.31,0,2.69,1.23,5.18,3.37,6.82Z"/><path d="M8.6,491.48H126.43l-.04-2.6c-.01-.87-.04-1.73-.07-2.59-.04-1.13-.08-2.26-.08-3.4s.04-2.27,.08-3.41c.03-.86,.06-1.73,.07-2.59l.04-2.6H8.6c-4.74,0-8.6,3.86-8.6,8.6s3.86,8.6,8.6,8.6Z"/><path d="M599.2,145.75c3.79,1.31,7.55,2.66,11.27,4.09l2.44,.93L663.58,11.54c.96-2.63,.57-5.58-1.04-7.87-1.61-2.3-4.24-3.67-7.05-3.67-3.6,0-6.85,2.27-8.08,5.66l-50.68,139.24,2.46,.85Z"/><path d="M569.38,136.86c3.89,.97,7.73,2.05,11.57,3.15l2.5,.72L618.26,10.83c.7-2.6,.16-5.32-1.48-7.46-1.64-2.14-4.13-3.37-6.82-3.37-3.88,0-7.3,2.62-8.31,6.37l-34.79,129.86,2.53,.63Z"/><path d="M628.13,157.18c3.65,1.63,7.31,3.27,10.89,5.02l2.34,1.14L711.83,12.24c1.25-2.68,1.05-5.76-.54-8.26-1.59-2.49-4.3-3.98-7.26-3.98-3.33,0-6.39,1.95-7.8,4.97l-70.48,151.15,2.38,1.06Z"/><path d="M524.37,0c-4.49,0-8.18,3.37-8.57,7.85l-10.43,119.19,4.22,.29c3.46,.24,6.92,.47,10.35,.83l2.59,.27,10.42-119.07c.21-2.4-.6-4.79-2.23-6.56-1.62-1.77-3.94-2.79-6.35-2.79Z"/><path d="M550.7,132.76l2.56,.49,21.72-123.16c.44-2.51-.24-5.07-1.88-7.02-1.64-1.95-4.04-3.07-6.59-3.07-4.18,0-7.75,2.99-8.47,7.11l-21.71,123.14,2.58,.41c3.96,.63,7.89,1.36,11.8,2.11Z"/><path d="M707.46,205.9c3.11,2.52,6.14,5.12,9.16,7.75l1.97,1.71L887.43,14.13c2.17-2.59,2.63-6.1,1.2-9.16s-4.42-4.97-7.8-4.97c-2.55,0-4.95,1.12-6.59,3.07l-168.81,201.18,2.02,1.64Z"/><path d="M655.97,171.07c3.5,1.94,6.98,3.92,10.4,5.98l2.24,1.34L764.15,12.9c1.56-2.69,1.56-5.91,0-8.6-1.56-2.69-4.34-4.3-7.45-4.3s-5.92,1.65-7.45,4.3l-95.55,165.5,2.27,1.27Z"/><path d="M682.5,187.31c3.07,2.08,6.07,4.26,9.07,6.44l2.82,2.05L822.01,13.54c1.85-2.64,2.07-6.05,.58-8.9-1.49-2.86-4.41-4.63-7.64-4.63-2.8,0-5.44,1.37-7.05,3.67l-127.57,182.19,2.16,1.46Z"/><path d="M297.15,178.39l2.24-1.34c3.42-2.06,6.9-4.03,10.4-5.98l2.27-1.27L216.5,4.3c-1.53-2.65-4.39-4.3-7.45-4.3s-5.89,1.61-7.45,4.3c-1.56,2.69-1.56,5.91,0,8.6l95.54,165.49Z"/><path d="M247.17,215.35l1.97-1.71c3.02-2.62,6.05-5.23,9.16-7.75l2.02-1.64L91.51,3.07c-1.64-1.95-4.04-3.07-6.6-3.07-3.38,0-6.37,1.9-7.79,4.97-1.43,3.06-.97,6.57,1.21,9.17L247.17,215.35Z"/><path d="M324.38,163.34l2.34-1.14c3.59-1.75,7.24-3.39,10.89-5.02l2.38-1.06L269.51,4.97c-1.41-3.02-4.47-4.97-7.8-4.97-2.95,0-5.67,1.49-7.25,3.98s-1.79,5.58-.54,8.26l70.46,151.1Z"/><path d="M352.85,150.78l2.43-.93c3.73-1.43,7.49-2.79,11.27-4.09l2.47-.85L318.34,5.66c-1.23-3.38-4.48-5.66-8.08-5.66-2.8,0-5.44,1.37-7.05,3.67-1.61,2.3-2,5.24-1.04,7.87l50.68,139.23Z"/><path d="M482.88,0c-4.74,0-8.6,3.86-8.6,8.6V126.44l2.61-.04c.85-.01,1.7-.04,2.56-.07,2.29-.08,4.59-.08,6.88,0,.85,.03,1.7,.06,2.56,.07l2.61,.04V8.6c0-4.74-3.86-8.6-8.6-8.6Z"/><path d="M271.36,195.8l2.71-1.97c3.03-2.2,6.06-4.41,9.17-6.52l2.16-1.46L157.83,3.67c-1.61-2.3-4.24-3.67-7.05-3.67-3.22,0-6.14,1.77-7.63,4.63-1.49,2.86-1.26,6.27,.58,8.9l127.62,182.26Z"/><path d="M441.38,0c-2.41,0-4.72,1.02-6.34,2.79-1.62,1.77-2.44,4.16-2.23,6.56l10.42,119.07,2.59-.27c3.42-.35,6.88-.59,10.33-.83l4.23-.29-10.43-119.19c-.39-4.48-4.08-7.85-8.57-7.85Z"/><path d="M382.29,140.72l2.5-.72c3.84-1.1,7.68-2.18,11.57-3.15l2.53-.63L364.1,6.38c-1-3.75-4.42-6.38-8.31-6.38-2.7,0-5.18,1.23-6.82,3.37-1.64,2.14-2.18,4.86-1.48,7.46l34.8,129.9Z"/><path d="M399.25,0c-2.55,0-4.95,1.12-6.59,3.07-1.64,1.95-2.32,4.51-1.88,7.02l21.72,123.16,2.56-.49c3.92-.75,7.85-1.48,11.81-2.11l2.58-.41L407.72,7.11c-.73-4.12-4.29-7.11-8.47-7.11Z"/><path d="M730.71,226.55c2.87,2.78,5.7,5.61,8.48,8.48l1.81,1.87L963.23,14.69c1.6-1.6,2.52-3.82,2.52-6.08,0-4.74-3.86-8.6-8.6-8.6-2.3,0-4.46,.9-6.08,2.52l-222.22,222.22,1.87,1.81Z"/><path d="M958.64,558.03l-123.14-21.71-.41,2.58c-.63,3.96-1.36,7.89-2.11,11.81l-.49,2.56,123.16,21.72c.5,.09,1,.13,1.5,.13,2,0,3.96-.7,5.52-2.01,1.95-1.64,3.07-4.04,3.07-6.59,0-4.18-2.99-7.74-7.11-8.47Z"/><path d="M959.38,601.65l-129.86-34.8-.63,2.53c-.97,3.89-2.05,7.73-3.15,11.57l-.72,2.5,129.9,34.8c.75,.2,1.5,.3,2.25,.3,1.87,0,3.69-.61,5.22-1.78,2.14-1.64,3.37-4.13,3.37-6.82,0-3.89-2.62-7.3-6.37-8.31Z"/><path d="M957.9,515.8l-119.19-10.43-.29,4.22c-.24,3.46-.47,6.92-.83,10.34l-.27,2.59,119.07,10.42c.25,.02,.5,.03,.74,.03,2.14,0,4.23-.8,5.81-2.26,1.77-1.62,2.79-3.94,2.79-6.35,0-4.49-3.37-8.18-7.85-8.57Z"/><path d="M960.09,647.41l-139.24-50.68-.85,2.46c-1.31,3.79-2.66,7.55-4.09,11.27l-.93,2.44,139.23,50.68c.95,.35,1.95,.52,2.94,.52,1.74,0,3.47-.53,4.93-1.56,2.3-1.61,3.67-4.24,3.67-7.05,0-3.6-2.27-6.85-5.66-8.08Z"/><path d="M962.08,807.92l-182.19-127.57-1.46,2.16c-2.12,3.13-4.35,6.19-6.57,9.25l-1.91,2.63,182.26,127.62c1.48,1.04,3.2,1.56,4.93,1.56,1.36,0,2.72-.32,3.98-.98,2.86-1.49,4.63-4.41,4.63-7.64,0-2.8-1.37-5.44-3.67-7.04Z"/><path d="M960.78,696.24l-151.15-70.48-1.06,2.38c-1.63,3.66-3.27,7.31-5.02,10.9l-1.14,2.34,151.1,70.46c1.16,.54,2.4,.81,3.64,.81,1.61,0,3.21-.45,4.62-1.35,2.49-1.59,3.98-4.3,3.98-7.26,0-3.33-1.95-6.39-4.97-7.8Z"/><path d="M957.15,474.27h-117.84l.04,2.61c.01,.85,.04,1.7,.07,2.56,.04,1.14,.08,2.29,.08,3.44s-.04,2.3-.08,3.44c-.03,.85-.06,1.7-.07,2.55l-.04,2.61h117.84c4.74,0,8.6-3.86,8.6-8.6s-3.86-8.6-8.6-8.6Z"/><path d="M961.45,749.25l-165.5-95.55-1.27,2.27c-1.94,3.5-3.92,6.98-5.98,10.4l-1.34,2.24,165.49,95.54c1.35,.78,2.82,1.17,4.3,1.17s2.95-.39,4.3-1.17c2.69-1.55,4.3-4.34,4.3-7.45s-1.65-5.92-4.3-7.45Z"/><path d="M961.77,254.46c-2.49-1.59-5.58-1.79-8.26-.54l-151.1,70.46,1.14,2.34c1.75,3.59,3.38,7.24,5.02,10.9l1.06,2.38,151.15-70.48c3.02-1.41,4.97-4.47,4.97-7.8,0-2.95-1.49-5.66-3.98-7.25Z"/><path d="M761.5,705.44l-1.64,2.02c-2.52,3.11-5.12,6.14-7.75,9.16l-1.71,1.97,201.22,168.85c1.59,1.34,3.53,2.02,5.5,2.02,1.23,0,2.48-.27,3.66-.82,3.06-1.43,4.97-4.42,4.97-7.8,0-2.55-1.12-4.95-3.07-6.59l-201.18-168.81Z"/><path d="M956.4,432.81l-119.07,10.42,.27,2.59c.35,3.43,.59,6.88,.83,10.34l.29,4.22,119.18-10.43c4.48-.39,7.85-4.08,7.85-8.57,0-2.4-1.02-4.72-2.79-6.34-1.77-1.62-4.17-2.42-6.56-2.23Z"/><path d="M961.12,143.15c-2.86-1.48-6.26-1.26-8.91,.58l-182.26,127.62,1.97,2.71c2.2,3.03,4.41,6.06,6.52,9.17l1.46,2.16,182.19-127.57c2.3-1.61,3.67-4.24,3.67-7.05,0-3.22-1.77-6.14-4.63-7.63Z"/><path d="M960.79,77.11c-3.07-1.43-6.58-.97-9.17,1.2l-201.23,168.85,1.71,1.97c2.62,3.02,5.23,6.05,7.75,9.16l1.64,2.02,201.18-168.81c1.95-1.64,3.07-4.04,3.07-6.6,0-3.38-1.9-6.37-4.96-7.8Z"/><path d="M961.45,201.6c-2.69-1.56-5.91-1.56-8.6,0l-165.49,95.54,1.34,2.24c2.06,3.42,4.03,6.9,5.98,10.4l1.27,2.27,165.5-95.55c2.65-1.53,4.3-4.39,4.3-7.45s-1.61-5.89-4.3-7.45Z"/><path d="M955.66,390.78l-123.16,21.72,.49,2.56c.75,3.92,1.48,7.84,2.11,11.8l.41,2.58,123.14-21.71c4.12-.73,7.11-4.29,7.11-8.47,0-2.55-1.12-4.95-3.07-6.59s-4.51-2.32-7.02-1.88Z"/><path d="M962.39,348.97c-2.14-1.64-4.86-2.18-7.46-1.48l-129.9,34.8,.72,2.51c1.1,3.84,2.18,7.68,3.15,11.57l.63,2.53,129.85-34.8c3.75-1,6.38-4.42,6.38-8.31,0-2.7-1.23-5.18-3.37-6.82Z"/><path d="M962.08,303.21c-2.3-1.61-5.24-2-7.88-1.04l-139.23,50.68,.93,2.44c1.43,3.73,2.79,7.49,4.09,11.27l.85,2.46,139.24-50.68c3.39-1.23,5.66-4.48,5.66-8.09,0-2.8-1.37-5.44-3.67-7.05Z"/><path d="M258.29,759.86c-3.11-2.52-6.14-5.12-9.15-7.75l-1.97-1.71-168.85,201.22c-2.17,2.59-2.63,6.1-1.21,9.16,1.43,3.06,4.42,4.97,7.8,4.97,2.55,0,4.95-1.12,6.59-3.07l168.81-201.18-2.02-1.64Z"/><path d="M366.55,820c-3.79-1.31-7.55-2.66-11.27-4.09l-2.44-.93-50.68,139.23c-.96,2.64-.57,5.58,1.04,7.88,1.61,2.3,4.24,3.67,7.05,3.67,3.6,0,6.85-2.27,8.08-5.66l50.68-139.24-2.46-.85Z"/><path d="M396.37,828.89c-3.89-.97-7.73-2.05-11.57-3.15l-2.51-.72-34.81,129.9c-.7,2.6-.16,5.32,1.48,7.46,1.64,2.14,4.13,3.37,6.83,3.37,3.89,0,7.3-2.62,8.31-6.37l34.79-129.86-2.53-.63Z"/><path d="M415.05,832.99l-2.56-.49-21.72,123.16c-.44,2.51,.25,5.07,1.88,7.02s4.04,3.07,6.59,3.07c4.18,0,7.74-2.99,8.47-7.11l21.71-123.14-2.58-.41c-3.96-.63-7.89-1.36-11.81-2.11Z"/><path d="M486.28,839.43c-2.26,.08-4.55,.08-6.81,0-.86-.03-1.73-.06-2.59-.07l-2.6-.04v117.83c0,4.74,3.86,8.6,8.6,8.6s8.6-3.86,8.6-8.6v-117.83l-2.6,.04c-.87,.01-1.73,.04-2.59,.07Z"/><path d="M445.82,837.6l-2.59-.27-10.42,119.07c-.21,2.39,.6,4.79,2.23,6.56s3.94,2.79,6.35,2.79c4.49,0,8.18-3.37,8.57-7.85l10.43-119.18-4.33-.3c-3.42-.24-6.84-.47-10.23-.82Z"/><path d="M283.24,778.44c-3.13-2.12-6.19-4.35-9.25-6.57l-2.63-1.91-127.62,182.26c-1.85,2.64-2.07,6.05-.58,8.9,1.49,2.86,4.41,4.63,7.63,4.63,2.8,0,5.44-1.37,7.05-3.67l127.57-182.19-2.16-1.46Z"/><path d="M337.62,808.58c-3.65-1.63-7.31-3.27-10.89-5.02l-2.34-1.14-70.46,151.1c-1.25,2.68-1.05,5.76,.54,8.26,1.59,2.49,4.3,3.98,7.26,3.98,3.33,0,6.39-1.95,7.8-4.97l70.48-151.15-2.38-1.06Z"/><path d="M309.78,794.68c-3.5-1.94-6.98-3.92-10.4-5.98l-2.24-1.34-95.54,165.49c-1.56,2.69-1.56,5.91,0,8.6,1.56,2.69,4.34,4.3,7.45,4.3s5.92-1.65,7.45-4.3l95.55-165.5-2.27-1.27Z"/><path d="M553.26,832.5l-2.56,.49c-3.92,.75-7.85,1.48-11.81,2.11l-2.58,.41,21.71,123.14c.73,4.12,4.29,7.11,8.47,7.11,2.55,0,4.95-1.12,6.59-3.07s2.32-4.51,1.88-7.02l-21.72-123.16Z"/><path d="M694.39,769.95l-2.71,1.97c-3.03,2.2-6.06,4.41-9.17,6.52l-2.16,1.46,127.57,182.19c1.61,2.3,4.24,3.67,7.05,3.67,3.22,0,6.14-1.77,7.63-4.63s1.26-6.27-.58-8.91l-127.62-182.26Z"/><path d="M668.6,787.36l-2.24,1.34c-3.42,2.06-6.9,4.03-10.4,5.98l-2.27,1.27,95.55,165.5c1.53,2.65,4.39,4.3,7.45,4.3s5.9-1.61,7.45-4.3c1.55-2.69,1.55-5.91,0-8.6l-95.54-165.49Z"/><path d="M718.59,750.4l-1.97,1.71c-3.02,2.62-6.05,5.23-9.16,7.75l-2.02,1.64,168.81,201.18c1.64,1.95,4.04,3.07,6.59,3.07,3.38,0,6.37-1.9,7.8-4.97s.97-6.57-1.21-9.17l-168.85-201.22Z"/><path d="M641.37,802.42l-2.34,1.14c-3.59,1.75-7.24,3.38-10.89,5.02l-2.38,1.06,70.48,151.15c1.41,3.02,4.47,4.97,7.8,4.97,2.95,0,5.67-1.49,7.25-3.98,1.59-2.49,1.79-5.58,.54-8.26l-70.46-151.1Z"/><path d="M583.46,825.03l-2.51,.72c-3.84,1.1-7.68,2.18-11.57,3.15l-2.53,.63,34.79,129.86c1.01,3.75,4.42,6.37,8.31,6.37,2.69,0,5.18-1.23,6.82-3.37,1.64-2.14,2.18-4.86,1.48-7.46l-34.81-129.9Z"/><path d="M741.01,728.84l-1.81,1.87c-2.78,2.87-5.61,5.7-8.48,8.48l-1.87,1.81,222.23,222.23c1.6,1.6,3.82,2.52,6.08,2.52,4.74,0,8.6-3.86,8.6-8.61,0-2.27-.92-4.48-2.52-6.08l-222.22-222.23Z"/><path d="M519.93,837.6c-3.39,.35-6.82,.58-10.24,.82l-4.32,.3,10.43,119.18c.39,4.48,4.08,7.85,8.57,7.85,2.41,0,4.72-1.02,6.34-2.79s2.44-4.16,2.23-6.56l-10.42-119.07-2.59,.27Z"/><path d="M612.91,814.98l-2.43,.93c-3.73,1.43-7.49,2.78-11.27,4.09l-2.46,.85,50.68,139.24c1.23,3.39,4.48,5.66,8.08,5.66,2.8,0,5.44-1.37,7.05-3.67,1.61-2.3,2-5.24,1.04-7.88l-50.68-139.23Z"/></svg>